<?xml version="1.0" encoding="UTF-8" standalone="no"?>
<svg width="18px" height="18px" viewBox="0 0 18 18" version="1.1" xmlns="http://www.w3.org/2000/svg" xmlns:xlink="http://www.w3.org/1999/xlink">
    <!-- Generator: Sketch 42 (36781) - http://www.bohemiancoding.com/sketch -->
    <title>add</title>
    <desc>Created with Sketch.</desc>
    <defs></defs>
    <g id="Assets" stroke="none" stroke-width="1" fill="none" fill-rule="evenodd">
        <g id="Style-Guide---Icons" transform="translate(-366.000000, -892.000000)" fill-rule="nonzero" fill="#ffffff">
            <path d="M382.578248,900.693948 L383.030833,900.693948 L383.030833,900.193948 L382.530833,900.193948 L382.530833,901.099118 L383.030833,901.099118 L383.030833,900.599118 L382.578248,900.599118 L375.336885,900.599118 L374.836885,900.599118 L374.836885,901.099118 L374.836885,908.578248 L374.836885,909.030833 L375.336885,909.030833 L375.336885,908.530833 L374.431715,908.530833 L374.431715,909.030833 L374.931715,909.030833 L374.931715,908.578248 L374.931715,901.099118 L374.931715,900.599118 L374.431715,900.599118 L366.952585,900.599118 L366.5,900.599118 L366.5,901.099118 L367,901.099118 L367,900.193948 L366.5,900.193948 L366.5,900.693948 L366.952585,900.693948 L374.431715,900.693948 L374.931715,900.693948 L374.931715,900.193948 L374.931715,892.952585 L374.931715,892.5 L374.431715,892.5 L374.431715,893 L375.336885,893 L375.336885,892.5 L374.836885,892.5 L374.836885,892.952585 L374.836885,900.193948 L374.836885,900.693948 L375.336885,900.693948 L382.578248,900.693948 Z M375.836885,900.193948 L375.836885,892.952585 L375.836885,892.5 L375.836885,892 L375.336885,892 L374.431715,892 L373.931715,892 L373.931715,892.5 L373.931715,892.952585 L373.931715,900.193948 L374.431715,899.693948 L366.952585,899.693948 L366.5,899.693948 L366,899.693948 L366,900.193948 L366,901.099118 L366,901.599118 L366.5,901.599118 L366.952585,901.599118 L374.431715,901.599118 L373.931715,901.099118 L373.931715,908.578248 L373.931715,909.030833 L373.931715,909.530833 L374.431715,909.530833 L375.336885,909.530833 L375.836885,909.530833 L375.836885,909.030833 L375.836885,908.578248 L375.836885,901.099118 L375.336885,901.599118 L382.578248,901.599118 L383.030833,901.599118 L383.530833,901.599118 L383.530833,901.099118 L383.530833,900.193948 L383.530833,899.693948 L383.030833,899.693948 L382.578248,899.693948 L375.336885,899.693948 L375.836885,900.193948 Z" id="add"></path>
        </g>
    </g>
</svg>