<?xml version="1.0" encoding="UTF-8"?>
<svg width="24px" height="24px" viewBox="0 0 24 24" version="1.1" xmlns="http://www.w3.org/2000/svg" xmlns:xlink="http://www.w3.org/1999/xlink">
    <!-- Generator: sketchtool 57.1 (101010) - https://sketch.com -->
    <title>21A7C9E8-A97D-4AB3-8FE1-0B8C141EC160</title>
    <desc>Created with sketchtool.</desc>
    <g id="Dashboard" stroke="none" stroke-width="1" fill="none" fill-rule="evenodd">
        <g id="Shping-1" transform="translate(-331.000000, -978.000000)" fill-rule="nonzero">
            <g id="Group-2" transform="translate(285.000000, 210.000000)">
                <g id="Products-Stat-Card" transform="translate(2.000000, 630.000000)">
                    <g id="content" transform="translate(0.000000, 60.000000)">
                        <g id="sony-xperia-x-compact" transform="translate(44.000000, 60.000000)">
                            <g id="image" transform="translate(0.000000, 4.000000)">
                                <g id="icons-/-featured" transform="translate(0.000000, 14.000000)">
                                    <g>
                                        <path d="M22.0590341,7.54445898 L15.2200057,6.91188248 L12.5033352,0.620643016 C12.313108,0.180124169 11.6868409,0.180124169 11.4966648,0.620643016 L8.77999432,6.91183149 L1.94096591,7.54445898 C1.46207386,7.58872506 1.26857386,8.18274723 1.62985227,8.49929047 L6.78992045,13.0200399 L5.2798125,19.7022284 C5.1740625,20.170133 5.68077273,20.5372151 6.09426136,20.2923747 L12,16.7951508 L17.9057386,20.2923747 C18.3192784,20.5372661 18.8258864,20.170133 18.7201875,19.7022284 L17.2100284,13.0200399 L22.3701477,8.49929047 C22.7314261,8.18274723 22.537875,7.58872506 22.0590341,7.54445898 Z" id="Path" fill="#FD3842"></path>
                                        <g id="Group" transform="translate(0.000000, 1.090909)" fill="#FD3842">
                                            <path d="M5.82725397,0.352267667 C6.15672338,0.832150639 7.08666022,2.89306304 7.61831502,4.09413867 C7.70191463,4.28295007 7.47600241,4.45351882 7.33175685,4.31046606 C6.41423915,3.40076605 4.84541773,1.82216897 4.51594831,1.34223533 C4.2552432,0.962534893 4.33744142,0.433092729 4.6995775,0.15970639 C5.06166525,-0.113679949 5.56654885,-0.0274327668 5.82725397,0.352267667 Z" id="Path"></path>
                                            <path d="M18.172746,0.352267667 C17.8432766,0.832150639 16.9133398,2.89306304 16.381685,4.09413867 C16.2980854,4.28295007 16.5239976,4.45351882 16.6682431,4.31046606 C17.5857609,3.40076605 19.154534,1.8221183 19.4840517,1.34223533 C19.7447568,0.962534893 19.6625586,0.433092729 19.3004225,0.15970639 C18.9383348,-0.113679949 18.4334511,-0.0274327668 18.172746,0.352267667 Z" id="Path"></path>
                                            <path d="M23.4828144,13.7095653 C22.9855545,13.5361764 20.9866986,13.2497348 19.8247669,13.0925442 C19.6421155,13.0678154 19.5620627,13.330295 19.7231993,13.425472 C20.7484226,14.0309914 22.5208356,15.0596315 23.0180955,15.2330204 C23.4115468,15.3702267 23.8345359,15.1404313 23.9628625,14.7197068 C24.0911891,14.2989822 23.8762656,13.8467717 23.4828144,13.7095653 Z" id="Path"></path>
                                            <path d="M0.517185595,13.7095653 C1.01444554,13.5361764 3.01330145,13.2497348 4.17523309,13.0925442 C4.35788446,13.0678154 4.4379373,13.330295 4.27680069,13.425472 C3.25157744,14.0309914 1.47916441,15.0596315 0.981904464,15.2330204 C0.588453245,15.3702267 0.16546405,15.1404313 0.0371374565,14.7197068 C-0.0911891373,14.2989822 0.123734375,13.8467717 0.517185595,13.7095653 Z" id="Path"></path>
                                            <path d="M10.9090909,22.1891214 C10.9090909,21.6865897 11.1748281,19.78094 11.3353471,18.6757493 C11.3605668,18.502023 11.5485241,18.502023 11.5737438,18.6757493 C11.7342628,19.78094 12,21.6865897 12,22.1891214 C12,22.5867454 11.7557958,22.9090909 11.4545618,22.9090909 C11.1532951,22.9090909 10.9090909,22.5867454 10.9090909,22.1891214 Z" id="Path"></path>
                                        </g>
                                        <path d="M13.4911875,2.90840355 L12.5032841,0.620643016 C12.3130568,0.180124169 11.6867898,0.180124169 11.4966136,0.620643016 L8.77994318,6.91183149 L1.94096591,7.54445898 C1.46207386,7.58872506 1.26857386,8.18274723 1.62985227,8.49929047 L6.78992045,13.0200399 L5.2798125,19.7022284 C5.1740625,20.170133 5.68077273,20.5372151 6.09426136,20.2923747 L6.88027841,19.826918 C8.16886364,11.5081596 11.7914659,5.40158315 13.4911875,2.90840355 Z" id="Path" fill-opacity="0.149678" fill="#FFFFFF"></path>
                                    </g>
                                </g>
                            </g>
                        </g>
                    </g>
                </g>
            </g>
        </g>
    </g>
</svg>