<svg width="16" height="16" viewBox="0 0 16 16" fill="none" xmlns="http://www.w3.org/2000/svg">
<path d="M10.9218 5.51514H10.189C10.0296 5.51514 9.87808 5.5917 9.78433 5.72295L7.32808 9.1292L6.21558 7.58545C6.12183 7.45576 5.97183 7.37764 5.81089 7.37764H5.07808C4.97652 7.37764 4.91714 7.49326 4.97652 7.57607L6.92339 10.2761C6.96938 10.3403 7.03001 10.3926 7.10026 10.4287C7.1705 10.4647 7.24833 10.4836 7.3273 10.4836C7.40627 10.4836 7.4841 10.4647 7.55434 10.4287C7.62458 10.3926 7.68521 10.3403 7.7312 10.2761L11.0218 5.71357C11.0828 5.63076 11.0234 5.51514 10.9218 5.51514Z" fill="#33A946"/>
<path d="M8 1C4.13437 1 1 4.13437 1 8C1 11.8656 4.13437 15 8 15C11.8656 15 15 11.8656 15 8C15 4.13437 11.8656 1 8 1ZM8 13.8125C4.79063 13.8125 2.1875 11.2094 2.1875 8C2.1875 4.79063 4.79063 2.1875 8 2.1875C11.2094 2.1875 13.8125 4.79063 13.8125 8C13.8125 11.2094 11.2094 13.8125 8 13.8125Z" fill="#33A946"/>
</svg>
