<?xml version="1.0" encoding="UTF-8"?>
<svg width="130px" height="40px" viewBox="0 0 130 40" version="1.1" xmlns="http://www.w3.org/2000/svg" xmlns:xlink="http://www.w3.org/1999/xlink">
    <!-- Generator: Sketch 55.2 (78181) - https://sketchapp.com -->
    <title>shping_logo</title>
    <desc>Created with Sketch.</desc>
    <defs>
        <path d="M76.00003,-2.30926389e-13 C74.7628829,-2.30926389e-13 73.5257357,0.179215686 72.3729129,0.536862745 L72.3729129,0.536862745 C71.752973,2.53803922 71.752973,4.83254902 72.3729129,6.83372549 L72.3729129,6.83372549 C74.6781682,7.48784314 77.3215015,7.48784314 79.6267568,6.83372549 L79.6267568,6.83372549 C80.2482583,4.83254902 80.2482583,2.53803922 79.6267568,0.536862745 L79.6267568,0.536862745 C78.4743243,0.179215686 77.2371772,-2.30926389e-13 76.00003,-2.30926389e-13 Z M22.1648048,1.58156863 L22.1648048,32.0623529 C24.546967,32.72 27.2707207,32.72 29.6552252,32.0623529 L29.6552252,32.0623529 L29.6552252,17.1141176 C30.6862462,16.3980392 31.9202703,15.9886275 33.0403003,15.9886275 L33.0403003,15.9886275 C34.750991,15.9886275 35.5106907,16.7305882 35.5106907,18.5329412 L35.5106907,18.5329412 L35.5106907,32.0623529 C37.8928529,32.72 40.616997,32.72 43.0011111,32.0623529 L43.0011111,32.0623529 L43.0011111,17.0964706 C43.0011111,11.9039216 39.9463063,9.11333333 35.2866066,9.11333333 L35.2866066,9.11333333 C33.2768769,9.11333333 31.3093093,9.63686275 29.6552252,10.5494118 L29.6552252,10.5494118 L29.6552252,1.58156863 C28.4637538,1.26078431 27.1867868,1.10039216 25.9098198,1.10039216 L25.9098198,1.10039216 C24.6328529,1.10039216 23.3558859,1.26078431 22.1648048,1.58156863 L22.1648048,1.58156863 Z M1.20552553,11.994902 C1.20552553,19.1905882 10.4780781,18.7298039 10.4780781,20.9662745 L10.4780781,20.9662745 C10.4780781,21.7839216 9.35804805,22.1968627 7.46543544,22.1968627 L7.46543544,22.1968627 C5.64465465,22.1968627 3.5303003,21.7682353 1.65915916,21.0223529 L1.65915916,21.0223529 C0.587537538,22.2996078 0.00429429429,24.0254902 1.42108547e-14,25.8701961 L1.42108547e-14,25.8701961 L1.42108547e-14,25.9023529 C0.00039039039,26.2168627 0.0175675676,26.5341176 0.0519219219,26.8537255 L0.0519219219,26.8537255 C2.50279279,27.994902 5.64855856,28.6490196 8.6857958,28.6490196 L8.6857958,28.6490196 C14.4081381,28.6490196 18.1141141,25.8827451 18.1141141,21.2580392 L18.1141141,21.2580392 C18.1141141,13.5298039 8.63309309,14.5427451 8.63309309,12.1478431 L8.63309309,12.1478431 C8.63309309,11.4866667 9.31744745,11.1086275 10.5659159,11.1086275 L10.5659159,11.1086275 C11.8713814,11.1086275 13.0671471,11.5921569 13.8448048,12.432549 L13.8448048,12.432549 C15.7015015,11.7011765 17.0093093,10.1647059 17.4348348,8.21607843 L17.4348348,8.21607843 C15.7471772,6.16941176 12.8817117,4.99411765 9.62897898,4.99411765 L9.62897898,4.99411765 C4.7084985,4.99411765 1.20552553,7.71843137 1.20552553,11.994902 L1.20552553,11.994902 Z M46.7129429,8.12627451 L46.7129429,35.9517647 C49.0954955,36.5992157 51.8212012,36.5992157 54.2033634,35.9517647 L54.2033634,35.9517647 L54.2033634,27.2035294 C55.4237237,28.154902 57.2054655,28.6490196 59.0910511,28.6490196 L59.0910511,28.6490196 C64.8621922,28.6490196 68.1687988,24.26 68.1687988,16.6023529 L68.1687988,16.6023529 C68.1687988,8.95254902 64.5752553,5.02823529 57.5451051,5.02823529 L57.5451051,5.02823529 C53.6591592,5.02823529 49.7134835,6.15686275 46.7129429,8.12627451 L46.7129429,8.12627451 Z M54.1405105,20.5376471 L54.1405105,12.5717647 C54.9318318,12.1266667 56.0011111,11.8980392 57.1004505,11.8980392 L57.1004505,11.8980392 C59.5634234,11.8980392 60.6069369,13.3521569 60.6069369,16.6352941 L60.6069369,16.6352941 C60.6069369,20.2294118 59.5915315,21.7580392 57.2074174,21.7580392 L57.2074174,21.7580392 C56.0432733,21.7580392 54.9263664,21.3141176 54.1405105,20.5376471 L54.1405105,20.5376471 Z M83.8238438,9.63803922 L83.8238438,29.6223529 C86.2044444,30.2639216 88.9336637,30.2639216 91.3142643,29.6223529 L91.3142643,29.6223529 L91.3142643,14.2007843 C92.3577778,13.6717647 93.5968769,13.4145098 94.7169069,13.4145098 L94.7169069,13.4145098 C96.3819219,13.4145098 97.1697297,14.2098039 97.1697297,15.9596078 L97.1697297,15.9596078 L97.1697297,29.6223529 C99.5503303,30.2639216 102.27955,30.2639216 104.66015,29.6223529 L104.66015,29.6223529 L104.66015,14.5227451 C104.66015,9.38627451 101.551081,6.53921569 96.0090991,6.53921569 L96.0090991,6.53921569 C91.9217117,6.53921569 87.5821321,7.66823529 83.8238438,9.63803922 L83.8238438,9.63803922 Z M108.358318,19.3168627 C108.358318,26.3294118 111.584505,30.1631373 117.436456,30.1631373 L117.436456,30.1631373 C119.138168,30.1631373 120.921862,29.7811765 122.323754,28.9305882 L122.323754,28.9305882 L122.323754,29.7690196 C122.323754,32.2117647 120.592372,33.1188235 117.471592,33.1188235 L117.471592,33.1188235 C115.447808,33.1188235 113.420901,32.565098 111.573964,31.5490196 L111.573964,31.5490196 C110.231021,32.8517647 109.597808,34.9443137 109.883183,37.0894118 L109.883183,37.0894118 C111.981922,38.7568627 115.281502,39.7113725 118.941802,39.7113725 L118.941802,39.7113725 C126.21048,39.7113725 129.814565,35.9572549 129.814565,28.3839216 L129.814565,28.3839216 L129.814565,11.1364706 C127.086907,9.18862745 123.407477,8.07215686 119.715946,8.07215686 L119.715946,8.07215686 C112.494505,8.07215686 108.358318,12.1690196 108.358318,19.3168627 L108.358318,19.3168627 Z M115.922523,18.9847059 C115.922523,15.8792157 117.040991,14.5568627 119.671832,14.5568627 L119.671832,14.5568627 C120.668108,14.5568627 121.656967,14.734902 122.387387,15.0298039 L122.387387,15.0298039 L122.387387,22.4839216 C121.576547,23.0905882 120.468228,23.4388235 119.344685,23.4388235 L119.344685,23.4388235 C116.943003,23.4388235 115.922523,22.1094118 115.922523,18.9847059 L115.922523,18.9847059 Z M72.2534535,9.60862745 L72.2534535,32.2203922 C74.6344444,32.8972549 77.3621021,32.8972549 79.7442643,32.2203922 L79.7442643,32.2203922 L79.7442643,9.60862745 C77.3621021,10.2396078 74.6344444,10.2396078 72.2534535,9.60862745 L72.2534535,9.60862745 Z" id="path-1"></path>
    </defs>
    <g id="Page-1" stroke="none" stroke-width="1" fill="none" fill-rule="evenodd">
        <g id="Home" transform="translate(-165.000000, -69.000000)">
            <g id="header-1" transform="translate(0.000000, -147.000000)">
                <g id="NavBar">
                    <g id="shping_logo" transform="translate(165.000000, 216.000000)">
                        <mask id="mask-2" fill="white">
                            <use xlink:href="#path-1"></use>
                        </mask>
                        <g id="Clip-2"></g>
                        <path d="M76.00003,-2.30926389e-13 C74.7628829,-2.30926389e-13 73.5257357,0.179215686 72.3729129,0.536862745 L72.3729129,0.536862745 C71.752973,2.53803922 71.752973,4.83254902 72.3729129,6.83372549 L72.3729129,6.83372549 C74.6781682,7.48784314 77.3215015,7.48784314 79.6267568,6.83372549 L79.6267568,6.83372549 C80.2482583,4.83254902 80.2482583,2.53803922 79.6267568,0.536862745 L79.6267568,0.536862745 C78.4743243,0.179215686 77.2371772,-2.30926389e-13 76.00003,-2.30926389e-13 Z M22.1648048,1.58156863 L22.1648048,32.0623529 C24.546967,32.72 27.2707207,32.72 29.6552252,32.0623529 L29.6552252,32.0623529 L29.6552252,17.1141176 C30.6862462,16.3980392 31.9202703,15.9886275 33.0403003,15.9886275 L33.0403003,15.9886275 C34.750991,15.9886275 35.5106907,16.7305882 35.5106907,18.5329412 L35.5106907,18.5329412 L35.5106907,32.0623529 C37.8928529,32.72 40.616997,32.72 43.0011111,32.0623529 L43.0011111,32.0623529 L43.0011111,17.0964706 C43.0011111,11.9039216 39.9463063,9.11333333 35.2866066,9.11333333 L35.2866066,9.11333333 C33.2768769,9.11333333 31.3093093,9.63686275 29.6552252,10.5494118 L29.6552252,10.5494118 L29.6552252,1.58156863 C28.4637538,1.26078431 27.1867868,1.10039216 25.9098198,1.10039216 L25.9098198,1.10039216 C24.6328529,1.10039216 23.3558859,1.26078431 22.1648048,1.58156863 L22.1648048,1.58156863 Z M1.20552553,11.994902 C1.20552553,19.1905882 10.4780781,18.7298039 10.4780781,20.9662745 L10.4780781,20.9662745 C10.4780781,21.7839216 9.35804805,22.1968627 7.46543544,22.1968627 L7.46543544,22.1968627 C5.64465465,22.1968627 3.5303003,21.7682353 1.65915916,21.0223529 L1.65915916,21.0223529 C0.587537538,22.2996078 0.00429429429,24.0254902 1.42108547e-14,25.8701961 L1.42108547e-14,25.8701961 L1.42108547e-14,25.9023529 C0.00039039039,26.2168627 0.0175675676,26.5341176 0.0519219219,26.8537255 L0.0519219219,26.8537255 C2.50279279,27.994902 5.64855856,28.6490196 8.6857958,28.6490196 L8.6857958,28.6490196 C14.4081381,28.6490196 18.1141141,25.8827451 18.1141141,21.2580392 L18.1141141,21.2580392 C18.1141141,13.5298039 8.63309309,14.5427451 8.63309309,12.1478431 L8.63309309,12.1478431 C8.63309309,11.4866667 9.31744745,11.1086275 10.5659159,11.1086275 L10.5659159,11.1086275 C11.8713814,11.1086275 13.0671471,11.5921569 13.8448048,12.432549 L13.8448048,12.432549 C15.7015015,11.7011765 17.0093093,10.1647059 17.4348348,8.21607843 L17.4348348,8.21607843 C15.7471772,6.16941176 12.8817117,4.99411765 9.62897898,4.99411765 L9.62897898,4.99411765 C4.7084985,4.99411765 1.20552553,7.71843137 1.20552553,11.994902 L1.20552553,11.994902 Z M46.7129429,8.12627451 L46.7129429,35.9517647 C49.0954955,36.5992157 51.8212012,36.5992157 54.2033634,35.9517647 L54.2033634,35.9517647 L54.2033634,27.2035294 C55.4237237,28.154902 57.2054655,28.6490196 59.0910511,28.6490196 L59.0910511,28.6490196 C64.8621922,28.6490196 68.1687988,24.26 68.1687988,16.6023529 L68.1687988,16.6023529 C68.1687988,8.95254902 64.5752553,5.02823529 57.5451051,5.02823529 L57.5451051,5.02823529 C53.6591592,5.02823529 49.7134835,6.15686275 46.7129429,8.12627451 L46.7129429,8.12627451 Z M54.1405105,20.5376471 L54.1405105,12.5717647 C54.9318318,12.1266667 56.0011111,11.8980392 57.1004505,11.8980392 L57.1004505,11.8980392 C59.5634234,11.8980392 60.6069369,13.3521569 60.6069369,16.6352941 L60.6069369,16.6352941 C60.6069369,20.2294118 59.5915315,21.7580392 57.2074174,21.7580392 L57.2074174,21.7580392 C56.0432733,21.7580392 54.9263664,21.3141176 54.1405105,20.5376471 L54.1405105,20.5376471 Z M83.8238438,9.63803922 L83.8238438,29.6223529 C86.2044444,30.2639216 88.9336637,30.2639216 91.3142643,29.6223529 L91.3142643,29.6223529 L91.3142643,14.2007843 C92.3577778,13.6717647 93.5968769,13.4145098 94.7169069,13.4145098 L94.7169069,13.4145098 C96.3819219,13.4145098 97.1697297,14.2098039 97.1697297,15.9596078 L97.1697297,15.9596078 L97.1697297,29.6223529 C99.5503303,30.2639216 102.27955,30.2639216 104.66015,29.6223529 L104.66015,29.6223529 L104.66015,14.5227451 C104.66015,9.38627451 101.551081,6.53921569 96.0090991,6.53921569 L96.0090991,6.53921569 C91.9217117,6.53921569 87.5821321,7.66823529 83.8238438,9.63803922 L83.8238438,9.63803922 Z M108.358318,19.3168627 C108.358318,26.3294118 111.584505,30.1631373 117.436456,30.1631373 L117.436456,30.1631373 C119.138168,30.1631373 120.921862,29.7811765 122.323754,28.9305882 L122.323754,28.9305882 L122.323754,29.7690196 C122.323754,32.2117647 120.592372,33.1188235 117.471592,33.1188235 L117.471592,33.1188235 C115.447808,33.1188235 113.420901,32.565098 111.573964,31.5490196 L111.573964,31.5490196 C110.231021,32.8517647 109.597808,34.9443137 109.883183,37.0894118 L109.883183,37.0894118 C111.981922,38.7568627 115.281502,39.7113725 118.941802,39.7113725 L118.941802,39.7113725 C126.21048,39.7113725 129.814565,35.9572549 129.814565,28.3839216 L129.814565,28.3839216 L129.814565,11.1364706 C127.086907,9.18862745 123.407477,8.07215686 119.715946,8.07215686 L119.715946,8.07215686 C112.494505,8.07215686 108.358318,12.1690196 108.358318,19.3168627 L108.358318,19.3168627 Z M115.922523,18.9847059 C115.922523,15.8792157 117.040991,14.5568627 119.671832,14.5568627 L119.671832,14.5568627 C120.668108,14.5568627 121.656967,14.734902 122.387387,15.0298039 L122.387387,15.0298039 L122.387387,22.4839216 C121.576547,23.0905882 120.468228,23.4388235 119.344685,23.4388235 L119.344685,23.4388235 C116.943003,23.4388235 115.922523,22.1094118 115.922523,18.9847059 L115.922523,18.9847059 Z M72.2534535,9.60862745 L72.2534535,32.2203922 C74.6344444,32.8972549 77.3621021,32.8972549 79.7442643,32.2203922 L79.7442643,32.2203922 L79.7442643,9.60862745 C77.3621021,10.2396078 74.6344444,10.2396078 72.2534535,9.60862745 L72.2534535,9.60862745 Z" id="Fill-1" fill="#FF4A4B" mask="url(#mask-2)"></path>
                    </g>
                </g>
            </g>
        </g>
    </g>
</svg>