<svg width="21" height="20" viewBox="0 0 21 20" fill="none" xmlns="http://www.w3.org/2000/svg">
  <path d="M10.2446 3.8147e-06C4.72213 3.8147e-06 0.244629 4.4775 0.244629 10C0.244629 15.5225 4.72213 20 10.2446 20C15.7671 20 20.2446 15.5225 20.2446 10C20.2446 4.4775 15.7671 3.8147e-06 10.2446 3.8147e-06ZM15.7321 12.2125C14.4946 12.2125 13.4905 11.2075 13.4905 9.97167C13.4905 8.73417 14.4963 7.72917 15.7321 7.72917C16.9696 7.72917 17.9738 8.735 17.9738 9.97167C17.9738 11.2083 16.968 12.2125 15.7321 12.2125ZM6.51963 12.2033C6.43713 12.2033 6.35963 12.1692 6.29713 12.1067L4.59463 10.4067L2.88463 12.1125C2.82713 12.1692 2.7513 12.2025 2.66963 12.2025C2.5013 12.2025 2.36296 12.0642 2.36296 11.8958C2.36296 11.8133 2.3963 11.7367 2.45546 11.6767L4.15546 9.96834L2.45713 8.2625C2.39463 8.205 2.36296 8.1275 2.36296 8.045C2.36296 7.87584 2.5013 7.74 2.66963 7.74C2.7513 7.74 2.8263 7.77084 2.88463 7.8275L4.59713 9.53417L6.3038 7.83C6.3613 7.77084 6.4388 7.74 6.52046 7.74C6.6963 7.74 6.83296 7.8775 6.83296 8.045C6.83296 8.12667 6.8088 8.20167 6.7463 8.26L5.03296 9.9725L6.74546 11.6817C6.80213 11.7392 6.83213 11.815 6.83213 11.8967C6.83213 12.065 6.69463 12.2033 6.52796 12.2033H6.51963ZM13.2005 8.3775C12.5371 8.46167 12.4655 8.77417 12.4655 9.5475V11.87C12.4655 12.0383 12.328 12.175 12.1605 12.175C11.9913 12.175 11.8546 12.0375 11.8538 11.87V8.095C11.8538 7.925 11.9871 7.79 12.1555 7.79C12.2938 7.79 12.4188 7.89417 12.4438 8.03084C12.6688 7.85667 12.9438 7.76667 13.2188 7.76667H13.3063C13.4688 7.76667 13.6055 7.90417 13.6055 8.07334C13.6055 8.24084 13.4688 8.36667 13.293 8.3725C13.293 8.3725 13.218 8.3725 13.1563 8.37917L13.2005 8.3775ZM10.6246 10.215H7.43213C7.43213 10.2308 7.43463 10.2458 7.43713 10.2625C7.45379 10.35 7.47463 10.4383 7.5063 10.5208C7.66796 10.9633 8.1438 11.5833 9.03046 11.5958C9.30546 11.5933 9.5563 11.5242 9.78046 11.405C9.95546 11.305 10.1063 11.1792 10.218 11.0483C10.2555 11 10.293 10.955 10.318 10.9083C10.468 10.7175 10.6555 10.7533 10.768 10.8392C10.9046 10.9517 10.918 11.165 10.8055 11.3142L10.7921 11.3275C10.6171 11.5525 10.4296 11.74 10.218 11.8775C10.0055 12.0142 9.78046 12.1142 9.54213 12.165C9.26713 12.24 9.00463 12.2517 8.72963 12.215C7.81713 12.1025 7.05463 11.44 6.82963 10.54C6.77963 10.365 6.75463 10.19 6.75463 10.0025C6.75463 9.29 7.10546 8.59 7.69213 8.165C8.42963 7.6525 9.42963 7.615 10.1921 8.1025C10.7171 8.44 11.0546 8.95334 11.1796 9.57834C11.2421 9.9275 11.0046 10.24 10.568 10.2533L10.6246 10.215ZM15.7321 8.3625C14.8455 8.3625 14.123 9.08334 14.123 9.97167C14.123 10.8583 14.8446 11.5808 15.7321 11.5808C16.6196 11.5808 17.3413 10.8583 17.3413 9.97167C17.3413 9.08417 16.6196 8.36084 15.7321 8.36084V8.3625ZM15.7321 10.525C15.4263 10.525 15.1771 10.2775 15.1771 9.97C15.1771 9.66417 15.4271 9.41584 15.7321 9.41584C16.038 9.41584 16.288 9.665 16.288 9.97C16.288 10.2775 16.038 10.5258 15.7321 10.525ZM9.03213 8.35584C8.2738 8.35584 7.6388 8.875 7.46046 9.5775V9.6025H10.6071C10.438 8.89 9.7963 8.3575 9.03129 8.3575V8.35584H9.03213Z" fill="#BBBBBB"/>
</svg>
